<svg id="图层_1" data-name="图层 1" xmlns="http://www.w3.org/2000/svg" viewBox="0 0 1500 1000"><title>featuredImagePreview</title><rect width="1500" height="1000" style="fill:none"/><path d="M495.4545,551.1,470.3812,525l82.9912-72.7273,14.8093,15.9824ZM603.3724,625c26.1-26.1,43.2552-62.4633,43.2552-103.3724C646.6276,440.9824,580.6452,375,500,375S353.3724,440.9824,353.3724,521.6276c0,40.9091,15.9824,77.2727,43.2552,103.3724l20.5278-20.5279c-21.5542-21.5542-34.1642-50-34.1642-82.9911A117.02,117.02,0,0,1,499.7068,404.3256H500A116.8006,116.8006,0,0,1,617.0089,521.0411v.2933c0,31.8182-13.6364,61.437-34.1642,82.9911Z" transform="translate(250)"/></svg>