<?xml version="1.0" encoding="utf-8"?>
<!-- Generator: Adobe Illustrator 23.0.1, SVG Export Plug-In . SVG Version: 6.00 Build 0)  -->
<svg version="1.1" id="图层_1" xmlns="http://www.w3.org/2000/svg" xmlns:xlink="http://www.w3.org/1999/xlink" x="0px" y="0px"
	 viewBox="0 0 1000 1000" style="enable-background:new 0 0 1000 1000;" xml:space="preserve">
<style type="text/css">
	.st0{fill:#FFFFFF;}
</style>
<title>SpeedTest</title>
<rect x="-250" class="st0" width="1500" height="1000"/>
<path d="M496.9,534.9l-17.1-17.8l56.6-49.6l10.1,10.9L496.9,534.9z M570.5,585.3c17.8-17.8,29.5-42.6,29.5-70.5c0-55-45-100-100-100
	s-100,45-100,100c0,27.9,10.9,52.7,29.5,70.5l14-14c-14.7-14.7-23.3-34.1-23.3-56.6c-0.1-44,35.6-79.8,79.6-79.9c0.1,0,0.2,0,0.2,0
	c44-0.1,79.8,35.6,79.8,79.6c0,0.1,0,0.1,0,0.2c0,21.7-9.3,41.9-23.3,56.6L570.5,585.3z"/>
</svg>
