<?xml version="1.0" encoding="utf-8"?>
<!-- Generator: Adobe Illustrator 23.0.1, SVG Export Plug-In . SVG Version: 6.00 Build 0)  -->
<svg version="1.1" id="图层_1" xmlns="http://www.w3.org/2000/svg" xmlns:xlink="http://www.w3.org/1999/xlink" x="0px" y="0px"
	 viewBox="0 0 566.9 566.9" style="enable-background:new 0 0 566.9 566.9;" xml:space="preserve">
<style type="text/css">
	.st0{fill:#E6E6E6;}
	.st1{fill:#FF7335;}
	.st2{fill:#13E900;}
	.st3{fill:#65E900;}
	.st4{fill:#13C100;}
	.st5{fill:#65C100;}
	.st6{fill:#FFFFFF;}
	.st7{font-family:'DengXian';}
	.st8{font-size:51.0417px;}
	.st9{font-size:31.1354px;}
</style>
<rect x="0" y="0" class="st0" width="566.9" height="566.9"/>
<circle class="st1" cx="450.3" cy="171.6" r="31.9"/>
<g>
	<g>
		<polygon class="st2" points="154.8,299.4 154.8,299.4 81,427.3 228.7,427.3 228.7,323.9 208.9,335.3 		"/>
		<polygon class="st3" points="154.8,299.4 154.8,299.4 208.9,335.3 228.7,323.9 228.7,299.4 228.7,171.6 		"/>
		<polygon class="st4" points="302.5,299.4 248.4,335.3 228.7,323.9 228.7,427.3 376.3,427.3 		"/>
		<polygon class="st5" points="302.5,299.4 228.7,171.6 228.7,299.4 228.7,323.9 248.4,335.3 		"/>
	</g>
	<text transform="matrix(1 0 0 1 184.9736 381.4844)" class="st6 st7 st8">&lt;/&gt;</text>
</g>
<g>
	<g>
		<polygon class="st2" points="350.8,349.3 350.8,349.3 305.8,427.3 395.8,427.3 395.8,364.2 383.8,371.2 		"/>
		<polygon class="st3" points="350.8,349.3 350.8,349.3 383.8,371.2 395.8,364.2 395.8,349.3 395.8,271.3 		"/>
		<polygon class="st4" points="440.9,349.3 407.9,371.2 395.8,364.2 395.8,427.3 485.9,427.3 		"/>
		<polygon class="st5" points="440.9,349.3 395.8,271.3 395.8,349.3 395.8,364.2 407.9,371.2 		"/>
	</g>
	<text transform="matrix(1 0 0 1 369.1973 399.3438)" class="st6 st7 st9">&lt;/&gt;</text>
</g>
</svg>
