<svg id="图层_1" data-name="图层 1" xmlns="http://www.w3.org/2000/svg" viewBox="0 0 500 498.77489"><title>fireworks</title><path d="M250.68777,698.63414a64.35534,64.35534,0,0,0,14.641,30.014,61.99354,61.99354,0,0,0,21.22939,16.10506c18.66063,8.27459,37.63725,3.49465,47.58312.73205,50.81384-14.11422,71.09491-32.56542,120.05587-49.77927l.00145-.00049c16.212-7.23406,29.63438-12.58667,38.79709-16.10456,18.40861-7.06772,30.65795-10.96629,47.58312-20.49734,3.86179-2.1747,25.93851-14.77107,26.35372-25.62168.03226-.843.02333-4.149,2.19615-5.85639.80621-.63352,3.05186-1.93824,8.78457,0,8.54067,2.88763,10.43633,8.11062,16.10506,11.71277,12.55714,7.97939,30.76992-.16532,33.6742-1.46409,9.52914-4.26142,15.06025-10.752,18.3012-14.641,3.04115-3.64921,8.00789-9.609,10.24867-18.3012,3.616-14.02669-4.47392-20.41571,0-24.88963,10.99976-10.99976,46.97015,3.05079,62.22408,0,10.26109-2.05223,14.85516-5.15083,17.56915-7.32048,15.02651-12.01267,14.02682-33.2438,13.90891-35.13831-.06823-1.09619-1.66587-21.99682-16.8371-32.21011-7.01527-4.7227-9.27714-2.00634-13.90891-6.58843-9.25627-9.157-1.70225-21.46863-11.71277-32.21011-3.98672-4.27781-10.59946-8.13516-11.71277-8.78457-7.38017-4.305-9.048-3.2467-10.98072-5.85639-4.4476-6.00548,3.37688-12.97084,1.4641-26.35372a37.61448,37.61448,0,0,0-7.32048-16.83711c-2.73195-3.78248-9.90534-10.04857-13.90891-12.44481a63.25126,63.25126,0,0,0-16.10506-5.85638c-3.27638-.57723-10.11449-1.79981-17.56915,0-12.38776,2.99083-11.75409,10.758-24.15758,15.373-7.01,2.60821-13.49423,2.46465-25.62168,2.19615-10.43146-.231-12.30912-1.62975-18.3012,0-7.59093,2.06462-10.68877,5.97166-15.373,4.39228-3.629-1.22355-5.90228-4.9619-6.58844-8.05252-1.41932-6.39311,3.60127-11.59792,5.12434-13.17687,4.33268-4.49168,7.31047-3.37252,10.98072-6.58843,5.7365-5.02635,5.44206-13.87607,5.12433-23.42553-.23743-7.13613-.62986-18.93073-8.78457-30.014a38.91213,38.91213,0,0,0-13.17686-11.71277c-1.64273-.87324-5.51869-2.76922-15.373-4.39228-17.64828-2.90679-21.4956.49309-24.88963-2.9282-5.98078-6.0288,5.37741-17.17891.73205-33.6742-3.69824-13.13214-14.92205-20.35765-17.56915-21.96144a41.56127,41.56127,0,0,0-21.2294-5.85639c-10.19836-.19322-27.75739,2.96639-33.6742,14.641-3.666,7.23337.11277,11.86459-4.39229,16.83711-5.01471,5.53506-11.4817,1.76685-21.22939,5.12433C389.2615,291.93934,379.047,307.28767,376.6,320.89739c-2.34625,13.04948,3.27675,19.89511-1.46409,24.15758-5.54416,4.98473-14.02535-4.14306-30.014,0-5.47195,1.41792-15.5826,7.17837-19.76529,10.98072-2.62937,2.39028-6.41907,8.557-8.05253,11.71277-1.70345,3.291-5.12434,13.90891-5.12434,13.90891-1.06488,6.05881-2.072,17.59712,3.66024,29.28192,7.316,14.91315,23.83215,26.44157,36.6024,27.08577,1.4483.07306,6.36751.18364,6.58843,1.4641.21554,1.24916-4.26184,2.3277-8.05253,5.12433-5.91044,4.36052-7.71125,11.09759-8.78457,14.641-5.6104,18.52172-16.01413,35.2759-22.69349,53.4395-4.50557,12.25234-1.3494,2.55534-24.15758,57.83179-19.4094,47.0394-17.58445,44.09955-21.22939,51.24336-9.29158,18.21077-15.56,26.35744-20.49734,44.65493C248.59137,685.04491,250.07281,695.17652,250.68777,698.63414Z" transform="translate(-250 -250.61255)"/><circle cx="109.03087" cy="141.29349" r="16.8371" style="fill:#886ce4"/><circle cx="250.31613" cy="172.77155" r="16.8371" style="fill:#fff100"/><circle cx="390.13729" cy="188.14456" r="16.8371" style="fill:#f03a17"/><circle cx="357.92718" cy="343.33872" r="16.8371" style="fill:#fff100"/><circle cx="264.22504" cy="109.08338" r="16.8371" style="fill:#00bcf2"/><path d="M558.14792,531.7272c-3.34332-.03105-5.66909-.006-8.05253,1.4641a9.59874,9.59874,0,0,0-4.39229,5.85638,9.76392,9.76392,0,0,0,3.66024,9.51662c.95152.72164,2.22076,1.46776,11.71277,1.4641,9.35689-.00362,11.05319-.35164,12.44481-.73205a25.083,25.083,0,0,0,8.05253-3.66024,24.039,24.039,0,0,0,8.05253-9.51662c1.72566-3.851.92511-5.31249,1.4641-21.22939.21446-6.33384.45766-9.5408,2.92819-11.71277a9.88943,9.88943,0,0,1,12.44481,0c2.91832,2.45342,3.25655,6.27705,3.66024,11.71277,1.33524,17.98,1.17747,18.79849,2.19615,21.22939.718,1.71337,3.661,8.44657,10.98072,11.71277a21.25744,21.25744,0,0,0,14.64095.732,22.828,22.828,0,0,0,12.44482-9.51662c1.55252-2.56217,2.11259-4.79732,2.92819-8.05253a60.59328,60.59328,0,0,0,1.4641-12.44481c.39926-9.73315-.65569-11.87474,1.46409-14.641a9.1506,9.1506,0,0,1,14.641,0c1.73741,2.13073,1.91332,4.24185,2.19615,13.17686.32625,10.30747.20785,11.1527.732,13.90891.82606,4.34319,1.67763,8.516,5.12434,11.71277,2.13484,1.98,4.31092,2.7005,7.32048,3.66024,1.79589.57272,6.83846,2.02319,16.10506,1.4641,9.05449-.54631,13.9027-.83884,16.10505-4.39229a7.69735,7.69735,0,0,0,0-8.05253c-1.00692-1.41776-2.73481-2.35793-8.05253-2.92819-11.55955-1.23967-16.03884,1.84692-20.49734-1.4641a11.84458,11.84458,0,0,1-3.66024-5.12433c-1.762-3.9617-1.07238-6.91988-.732-13.17687.441-8.10931.66159-12.164-.73205-15.373-2.26839-5.22322-6.9129-7.97434-9.51662-9.51663a22.13457,22.13457,0,0,0-11.71277-3.66024,22.54737,22.54737,0,0,0-11.71276,3.66024c-2.70466,1.55212-7.0461,4.04356-9.51663,8.78458-1.34332,2.57794-1.26759,4.15928-1.46409,16.105-.18976,11.5374-.342,15.02379-2.9282,16.83711-2.08774,1.46387-5.2292,1.464-5.85638,1.46409-.74585,0-3.85907.00023-5.85638-1.46409-3.087-2.2633-2.16818-7.04275-2.19615-17.56915-.02336-8.79083-.035-13.18621-1.46409-16.10506-3.885-7.93506-13.05574-10.52444-14.641-10.98072a25.4888,25.4888,0,0,0-13.90891,0c-1.683.48086-10.28478,3.12921-14.641,10.98072-2.91265,5.24976-2.91783,11.55236-2.92819,24.15758-.00563,6.83248.459,9.22424-1.4641,10.98072C573.2112,532.61532,571.09436,531.84748,558.14792,531.7272Z" transform="translate(-250 -250.61255)" style="fill:#f03a17"/><path d="M453.32172,442.769c-.03105,3.34332-.006,5.66908,1.4641,8.05252a9.5987,9.5987,0,0,0,5.85638,4.39229,9.76394,9.76394,0,0,0,9.51663-3.66024c.72163-.95152,1.46776-2.22076,1.46409-11.71276-.00362-9.3569-.35163-11.0532-.73205-12.44482a25.08291,25.08291,0,0,0-3.66024-8.05253,24.039,24.039,0,0,0-9.51662-8.05253c-3.851-1.72565-5.31248-.92511-21.22939-1.46409-6.33384-.21447-9.5408-.45767-11.71277-2.92819a9.88944,9.88944,0,0,1,0-12.44482c2.45342-2.91832,6.27706-3.25655,11.71277-3.66024,17.98-1.33524,18.7985-1.17747,21.22939-2.19614,1.71337-.718,8.44657-3.661,11.71277-10.98072a21.25755,21.25755,0,0,0,.73205-14.641,22.82818,22.82818,0,0,0-9.51663-12.44482c-2.56216-1.55251-4.79731-2.11259-8.05252-2.92819a60.59317,60.59317,0,0,0-12.44482-1.46409c-9.73315-.39927-11.87473.65568-14.641-1.4641a9.1506,9.1506,0,0,1,0-14.641c2.13073-1.73741,4.24185-1.91331,13.17686-2.19614,10.30748-.32626,11.1527-.20786,13.90892-.73205,4.34318-.82606,8.516-1.67763,11.71276-5.12434,1.98-2.13484,2.7005-4.31092,3.66024-7.32048.57272-1.79589,2.02319-6.83846,1.4641-16.10505-.54631-9.05449-.83884-13.9027-4.39229-16.10506a7.69735,7.69735,0,0,0-8.05253,0c-1.41776,1.00693-2.35793,2.73482-2.92819,8.05253-1.23966,11.55956,1.84692,16.03884-1.46409,20.49734a11.8446,11.8446,0,0,1-5.12434,3.66024c-3.9617,1.762-6.91987,1.07238-13.17686.73205-8.10932-.441-12.164-.66158-15.373.732-5.22321,2.26839-7.97434,6.9129-9.51662,9.51662a22.13451,22.13451,0,0,0-3.66024,11.71277,22.54735,22.54735,0,0,0,3.66024,11.71277c1.55211,2.70465,4.04355,7.04609,8.78457,9.51662,2.57794,1.34333,4.15928,1.26759,16.10506,1.4641,11.53739.18976,15.02378.342,16.8371,2.92819,1.46387,2.08775,1.464,5.2292,1.4641,5.85638,0,.74586.00022,3.85907-1.4641,5.85639-2.2633,3.087-7.04274,2.16817-17.56915,2.19614-8.79083.02337-13.1862.035-16.10506,1.4641-7.93506,3.885-10.52444,13.05573-10.98072,14.641a25.48881,25.48881,0,0,0,0,13.90891c.48086,1.683,3.12921,10.28477,10.98072,14.641,5.24976,2.91264,11.55237,2.91782,24.15759,2.92819,6.83247.00563,9.22423-.459,10.98072,1.46409C454.20984,427.70567,453.442,429.8225,453.32172,442.769Z" transform="translate(-250 -250.61255)" style="fill:#00bcf2"/><path d="M475.4265,514.15805c11.09742-16.19567,8.64906-19.362,20.49734-34.40625,4.0066-5.08734,13.917-13.59955,19.03325-17.56915,7.92934-6.15226,14.53694-11.56314,24.88963-16.10506,8.51586-3.73606,15.035-4.98326,23.42553-6.58843,16.53274-3.16288,21.81976-1.19105,24.88963.732,1.32742.83157,5.028,3.14978,5.12434,6.58843.09392,3.3529-3.2847,6.13776-5.85638,7.32048-2.85,1.3107-4.74987.6726-9.51663.73205-3.57539.04459-6.28782.51775-11.71277,1.46409a89.25017,89.25017,0,0,0-17.56915,5.12434,93.6057,93.6057,0,0,0-23.42553,13.90891,107.57037,107.57037,0,0,0-15.373,14.641c-18.31668,21.53648-17.95937,40.742-26.35372,40.99468-4.5814.13789-9.82957-5.428-10.24868-10.24867C472.96618,517.70788,474.64912,515.29258,475.4265,514.15805Z" transform="translate(-250 -250.61255)" style="fill:#886ce4"/><path d="M398.56146,452.666a52.89711,52.89711,0,0,1,10.98072,2.19615c17.63861,5.53783,26.55256,18.73813,39.53059,33.6742,5.34026,6.146,13.80883,14.346,30.746,30.746,37.88424,36.68277,47.58307,45.38692,47.58311,45.387,11.80562,10.59486,19.93477,17.37582,21.96144,29.28192a35.65117,35.65117,0,0,1-3.66024,21.96144c-7.2968,13.43842-22.55439,18.06157-27.81782,19.76529-42.77195,13.845-131.55149,63.42706-192.52861,81.25732-4.125,1.2062-14.76847,4.16862-25.62168,0a29.03117,29.03117,0,0,1-10.98072-7.32047c-6.82363-7.55233-7.19591-16.99541-7.32048-21.96144a57.1174,57.1174,0,0,1,7.32048-28.54987c6.90531-12.5769,17.7804-37.66652,39.53059-87.84576,19.34132-44.62177,29.13445-66.8794,31.47806-76.865,1.96421-8.36909,5.68334-26.41148,20.49734-35.87035A39.58935,39.58935,0,0,1,398.56146,452.666Z" transform="translate(-250 -250.61255)" style="fill:#ffc83d"/><circle cx="155.51592" cy="281.48067" r="16.8371" style="fill:#f03a17"/><circle cx="203.46506" cy="343.33872" r="16.8371" style="fill:#00bcf2"/></svg>