<svg id="图层_1" data-name="图层 1" xmlns="http://www.w3.org/2000/svg" viewBox="0 0 1500 1000"><title>Adobe-CreativeCloud</title><rect width="1500" height="1000" style="fill:none"/><path d="M523.1833,426.275c-1.925.1667-3.9333.3333-5.8583.5833a70.4424,70.4424,0,0,0-23.6,6.95,74.5923,74.5923,0,0,0-20.5,14.8084,1.2325,1.2325,0,0,1-1.175.4166,62.9507,62.9507,0,0,0-68.0333,40.0084,59.0742,59.0742,0,0,0-3.85,17.825A4.2235,4.2235,0,0,1,400,507.95v6.4417c.1667,1.675.4167,3.2666.5833,4.9416a58.7313,58.7313,0,0,0,5.8584,19.4167,62.232,62.232,0,0,0,31.55,29.95,59.3926,59.3926,0,0,0,20.4166,4.9417,3.1341,3.1341,0,0,1,.7167.0833h71.4667c1.525-.1417,3.0166-.2917,4.5583-.5a69.5328,69.5328,0,0,0,23.425-6.95,73.6329,73.6329,0,0,0,30.3833-27.5333,68.2248,68.2248,0,0,0,9.8667-25.775c.4167-2.8334.6667-5.7667,1.0083-8.6167A4.2228,4.2228,0,0,1,600,503.2667V496.65c-.1667-1.9167-.4167-3.7667-.4167-5.5167a69.5407,69.5407,0,0,0-6.95-23.4333,74.6,74.6,0,0,0-27.7-30.375,68.7073,68.7073,0,0,0-25.6-9.7916c-3.0166-.5-5.9416-.75-8.9583-1.0834a5.63,5.63,0,0,1-1.1667-.1666Z" transform="translate(250)" style="fill:#da1f26"/><path d="M526.2583,440.3833c17.7167.0417,32.75,6.8834,44.9583,20.4584a59.85,59.85,0,0,1,14.05,47.025A59.96,59.96,0,0,1,538.825,558.325a60.8087,60.8087,0,0,1-21.3333.8333,53.3772,53.3772,0,0,1-25.025-9.6166,43.3265,43.3265,0,0,1-5.6-4.775c-10.2167-10.0417-20.3334-20.1667-30.55-30.2084a6.4452,6.4452,0,0,1-1.5-7.7833,6.85,6.85,0,0,1,7.1916-3.9333,7.1421,7.1421,0,0,1,4.35,2.4333c9.2084,9.2833,18.3334,18.4083,27.5333,27.7a43.8588,43.8588,0,0,0,25.775,12.8c16.2334,2.175,30.0417-2.8417,41-14.9833a45.8957,45.8957,0,0,0,11.05-23.425A43.87,43.87,0,0,0,562.5917,471.8a46.1279,46.1279,0,0,0-61.4167-10.5417,1.2624,1.2624,0,0,1-1.0917.0834,75.3306,75.3306,0,0,0-11.7166-7.1167,1.0287,1.0287,0,0,1-.1667-.25,61.03,61.03,0,0,1,32.4667-13.3917q2.7866-.2108,5.5833-.2Z" transform="translate(250)" style="fill:#fff"/><path d="M462.8833,462.575c12.125-.2,23.2584,4.375,33.1834,13.5833,7.1166,6.6834,13.6416,13.6334,20.5,20.5834a6.2808,6.2808,0,0,1,1.425,6.9416c-.9167,2.5917-3.0167,3.85-5.6917,4.2667a6.0167,6.0167,0,0,1-5.2667-1.9167c-6.5333-6.5333-13.0583-12.975-19.5-19.5833a33.853,33.853,0,0,0-18.9166-9.8833,35.0137,35.0137,0,0,0-13.8084,68.625,51.84,51.84,0,0,0,12.475.8333,3.2453,3.2453,0,0,1,2.6667,1.0833c4.025,3.9417,8.2917,7.875,12.475,11.8.25.25.5833.5.8333.75-.5,0-.8333.0834-1.1666.0834H462.925a48.6085,48.6085,0,0,1-47.4417-38.0667C410.0417,497.1583,424.1,472.3,448.2,465.025A52.7529,52.7529,0,0,1,462.8833,462.575Z" transform="translate(250)" style="fill:#fff"/></svg>