<svg id="图层_1" data-name="图层 1" xmlns="http://www.w3.org/2000/svg" viewBox="0 0 1500 1000"><title>Debian</title><rect width="1500" height="1000" style="fill:none"/><path id="Shape" d="M519.4938,508.1553c-4.1476,0,.83,6.2847,6.2318,8.7982,1.4517-3.1419,2.8-6.9131,4.044-10.3691a11.1453,11.1453,0,0,1-10.2654,1.5709m23.2-6.5481a25.8136,25.8136,0,0,0,6.7876-10.9912c-.8658,2.8-2.8878,5.1845-4.7656,7.5694-10.8316,4.8735-1.011-2.8,0-5.8067-11.5533,10.4728-1.5886,6.2215-2.022,9.2285m14.9709-17.5289c2.49-13.0076-6.9691-9.0387-9.9564-3.9869,3.485.7216,6.4713,9.02,9.9564,3.9692m-53.66-105.2752c3.56,3.4563,8.0091,6.0486,7.4751,10.369,4.0937-4.32,4.9844-8.6409-7.6534-10.369m13.2724,1.2443L506.74,390.3987l9.6785-3.4563V380.03M576.97,483.14c.2073,6.6362-2.0738,9.8506-3.94,15.5536L569.4,500.57c-2.9033,5.5993.3111,3.6292-1.7627,8.0879-4.5624,4.0439-13.8946,12.65-16.7979,13.49-2.0842,0,1.4516-2.5923,1.97-3.5255-6.1281,4.1476-4.9875,6.2214-14.216,8.8137l-.3111-.6221c-23.03,10.7838-54.9871-10.5765-54.4686-39.8381-.3111,1.7628-.7258,1.348-1.2443,2.0738a36.833,36.833,0,0,1,20.7485-36.3021,34.842,34.842,0,0,1,38.6973,4.9771,34.6383,34.6383,0,0,0-28.2143-13.48c-12.2353.1037-23.6517,7.88-27.4883,16.2795-6.2214,3.94-6.9472,15.2425-9.6432,17.223-3.7432,26.97,6.8436,38.5938,24.6784,52.281,2.8,1.97.83,2.1775,1.2443,3.6292A48.7517,48.7517,0,0,1,486.7277,521.63c2.3849,3.4218,4.8735,6.8436,8.2953,9.4359-5.703-1.8664-13.1688-13.48-15.3463-13.9983,9.6433,17.2127,39.195,30.2881,54.5516,23.8489a64.3234,64.3234,0,0,1-24.16-2.9033c-3.4218-1.6591-7.984-5.2883-7.2581-5.91a60.1508,60.1508,0,0,0,61.1981-8.71c4.5624-3.6292,9.6433-9.747,11.0949-9.8507-2.0738,3.3181.4148,1.6591-1.2443,4.5624,4.5624-7.4657-2.0738-3.1107,4.77-12.8576l2.4886,3.4218c-.9332-6.2215,7.6731-13.6976,6.8436-23.4549,1.97-3.1107,2.0738,3.1107,0,10.058,3.0071-7.6731.8295-8.8137,1.5554-15.1389a49.25,49.25,0,0,1,2.3849,6.5326c-1.8665-7.2584,2.0738-12.443,2.9033-16.5906-.9332-.5184-2.9033,3.1107-3.3181-5.4956,0-3.8366,1.0369-2.0738,1.4517-2.9034-.83-.5184-2.696-3.3181-3.94-8.9277.83-1.348,2.2812,3.4218,3.5255,3.5255-.8295-4.3551-2.0738-7.7769-2.0738-11.1987-3.5255-7.0509-1.2443,1.0369-4.1476-3.1107-3.5255-11.3127,3.1107-2.5923,3.5254-7.6731,5.5993,7.9842,8.71,20.3234,10.1721,25.5079a99.0828,99.0828,0,0,0-5.0808-18.25c1.659.7259-2.696-12.868,2.1775-3.8365a81.1238,81.1238,0,0,0-37.9716-45.5514c1.8664,1.7627,4.355,4.0439,3.4218,4.355-7.7768-4.6661-6.4289-4.9772-7.5695-6.9473-6.3251-2.5923-6.74.2074-10.9912,0-12.0281-6.4288-14.3093-5.703-25.3213-9.8506l.5184,2.3849c-7.9841-2.5923-9.3321,1.0369-17.9383,0-.5184-.4148,2.8-1.4517,5.4954-1.8665-7.6832,1.0369-7.2685-1.4516-14.8379.3111a51.2239,51.2239,0,0,1,5.703-3.3181c-6.2215.4148-14.9315,3.6292-12.2355.7258-10.2551,4.6661-28.4321,11.095-38.5938,20.6345l-.3007-2.2812c-4.6661,5.5993-20.3234,16.7046-21.5677,23.963l-1.3583.3111c-2.3849,4.1476-3.94,8.8137-5.91,13.0754-3.1108,5.3919-4.6661,2.0738-4.1477,2.9033-6.2214,12.65-9.3321,23.3408-12.0281,32.1649,1.8664,2.8,0,17.109.7258,28.6187-3.1107,56.6463,39.8173,111.7373,86.7167,124.4913,6.9473,2.3849,17.1088,2.3849,25.8188,2.5923-10.2654-2.9034-11.6131-1.5554-21.5675-5.0809-7.2583-3.3181-8.8137-7.2584-13.8945-11.7171l2.0738,3.6292c-10.0684-3.5255-5.91-4.355-14.1123-6.9473l2.1775-2.8c-3.2145-.3111-8.6064-5.4956-10.0581-8.399l-3.5254.1037c-4.2514-5.1949-6.5326-9.0315-6.3252-12.0385l-1.151,2.0738c-1.3479-2.1775-15.761-19.7116-8.2952-15.6677-1.348-1.2443-3.2144-2.0738-5.1846-5.703l1.4517-1.7627c-3.6292-4.5624-6.6362-10.5765-6.4288-12.4429,2.0738,2.4885,3.3181,3.1107,4.6661,3.4218-9.1248-22.5217-9.6433-1.2443-16.601-22.8328l1.5554-.2073a50.7149,50.7149,0,0,1-2.696-5.2883l.6222-6.2214c-6.5325-7.6732-1.8664-32.1649-.9332-45.6448.7258-5.5993,5.4956-11.406,9.1248-20.5411l-2.1775-.4148c4.1476-7.362,24.274-29.78,33.6062-28.629,4.4587-5.703-.9332,0-1.8665-1.4517,9.9544-10.2758,13.0651-7.2584,19.7117-9.1248,7.2583-4.158-6.2215,1.659-2.8-1.5657,12.4429-3.1108,8.8138-7.2584,25.1036-8.8138,1.659,1.0369-4.044,1.4517-5.3919,2.696,10.3691-5.0809,32.6728-3.8366,47.3035,2.8C556.0137,413.8432,575,437.08,575.7254,459.0732l.8295.2074c-.4147,8.8137,1.348,18.8821-1.7627,28.1106l2.0738-4.355m-102.2442,29.78-.6481,2.9033c3.37,3.6292,6.0919,7.5695,10.3691,10.4728-3.1107-4.8735-5.4438-6.8436-9.721-13.48m10.56.5278c-3.376-1.7669-5.3051-4.0066-7.4754-6.1271,1.9292,3.77,6.27,7.07,10.3691,10.3691l-2.8937-4.242M596.8991,487.806l-.955,1.5553a61.0991,61.0991,0,0,1-9.4141,22.9364,57.4808,57.4808,0,0,0,10.2332-24.4917M504.666,385.94c2.8-8.6409,6.8436-4.32,9.8507-10.3691-3.8366,2.5923-7.6732,4.32-11.4058,8.6409l1.5551,1.7282M409.35,428.8888c1.9944,9.7422-12.2515,13.6732,3.1341,7.1784,8.5475-11.28-3.1341-3.0765-2.8492-7.1784M400.9472,458.14c5.6528-4.8143,7.066-7.6533,9.4213-10.3691-16.4873,5.4314-8.0081,6.5424-9.4213,10.2457" transform="translate(250)" style="fill:#a81d33;fill-rule:evenodd"/></svg>