<svg id="图层_1" data-name="图层 1" xmlns="http://www.w3.org/2000/svg" viewBox="0 0 1500 1000"><title>featuredImagePreview</title><rect width="1500" height="1000" style="fill:none"/><path id="Shape" d="M515.6665,506.5542c-3.3333,0,.6671,5.0508,5.0083,7.0708,1.1667-2.525,2.25-5.5558,3.25-8.3333a8.9573,8.9573,0,0,1-8.25,1.2625m18.6451-5.2625a20.7463,20.7463,0,0,0,5.455-8.8333c-.6958,2.25-2.3208,4.1666-3.83,6.0833-8.705,3.9166-.8125-2.25,0-4.6667-9.285,8.4167-1.2767,5-1.625,7.4167m12.0317-14.0875C548.3528,476.75,540.7508,479.94,538.35,484c2.8008.58,5.2008,7.249,8.0017,3.19m-43.1249-84.6065c2.861,2.7777,6.4367,4.8611,6.0075,8.3332,3.29-3.4718,4.0058-6.9444-6.1508-8.3332m10.6666,1-8.3334,8.3333,7.7783-2.7777v-5.5553M561.8584,486.45c.1666,5.3333-1.6667,7.9166-3.1665,12.5l-2.9173,1.508c-2.3333,4.5.25,2.9167-1.4166,6.5-3.6666,3.25-11.1666,10.1665-13.5,10.8415-1.675,0,1.1667-2.0833,1.5833-2.8333-4.925,3.3332-4.0083,5-11.425,7.0833l-.25-.5c-18.5086,8.6667-44.1915-8.5-43.7748-32.0166-.25,1.4167-.5833,1.0833-1,1.6666a29.6014,29.6014,0,0,1,16.6749-29.1749,28.0016,28.0016,0,0,1,31.1,4,27.8377,27.8377,0,0,0-22.675-10.8335c-9.8331.0833-19.0081,6.3329-22.0915,13.0833-5,3.1665-5.5833,12.25-7.75,13.8416-3.0082,21.675,5.5,31.0167,19.8333,42.0167,2.25,1.5832.6671,1.75,1,2.9167a39.1817,39.1817,0,0,1-12.75-9.6661A32.0806,32.0806,0,0,0,496,524.9668c-4.5834-1.5-10.5834-10.8335-12.3334-11.25,7.75,13.8333,31.5,24.3416,43.8415,19.1666a51.6942,51.6942,0,0,1-19.4167-2.3333c-2.75-1.3334-6.4165-4.25-5.8331-4.75a48.3414,48.3414,0,0,0,49.1831-7c3.6666-2.9167,7.75-7.8334,8.9166-7.9167-1.6666,2.6667.3334,1.3334-1,3.6666,3.6666-6-1.6666-2.5,3.8335-10.3332l2,2.75c-.75-5,6.1667-11.0084,5.5-18.85,1.5832-2.5,1.6667,2.5,0,8.0833,2.4167-6.1666.6667-7.0833,1.25-12.1666a39.5645,39.5645,0,0,1,1.9166,5.25c-1.5-5.8333,1.6667-10,2.3334-13.3334-.75-.4166-2.3334,2.5-2.6667-4.4166,0-3.0834.8333-1.6667,1.1667-2.3334-.6671-.4166-2.1667-2.6667-3.1665-7.1749.6671-1.0834,1.8334,2.75,2.8334,2.8333-.6667-3.5-1.6667-6.25-1.6667-9-2.8333-5.6666-1,.8333-3.3333-2.5-2.8333-9.0917,2.5-2.0833,2.8333-6.1666,4.5,6.4166,7,16.3333,8.175,20.5a79.63,79.63,0,0,0-4.0833-14.667c1.3333.5834-2.1667-10.3416,1.75-3.0832a65.1967,65.1967,0,0,0-30.5166-36.6083c1.5,1.4166,3.5,3.25,2.75,3.5-6.25-3.75-5.1667-4-6.0834-5.5834-5.0833-2.0833-5.4167.1667-8.8333,0-9.6666-5.1666-11.5-4.5833-20.35-7.9166l.4166,1.9167c-6.4166-2.0834-7.5.8333-14.4164,0-.4167-.3334,2.25-1.1667,4.4164-1.5-6.1747.8334-5.8414-1.1666-11.9247.25a41.1674,41.1674,0,0,1,4.5833-2.6667c-5,.3334-12,2.9167-9.8333.5833-8.2417,3.75-22.85,8.9167-31.0167,16.5833l-.2416-1.8333c-3.75,4.5-16.3333,13.425-17.3333,19.2584l-1.0917.25c-1.9166,3.3333-3.1664,7.0833-4.75,10.5083-2.5,4.3333-3.75,1.6666-3.3333,2.3333-5,10.1664-7.5,18.7583-9.6667,25.85,1.5,2.25,0,13.75.5833,23-2.5,45.525,32,89.8,69.6916,100.05,5.5834,1.9166,13.75,1.9166,20.75,2.0833-8.25-2.3334-9.3331-1.25-17.3331-4.0833-5.8333-2.6667-7.0833-5.8334-11.1666-9.4167l1.6666,2.9167c-8.0916-2.8334-4.75-3.5-11.3416-5.5834l1.75-2.25c-2.5834-.25-6.9168-4.4166-8.0834-6.75l-2.8333.0834c-3.4167-4.175-5.25-7.2584-5.0834-9.675l-.925,1.6666c-1.0832-1.75-12.6666-15.8416-6.6666-12.5916-1.0833-1-2.5833-1.6667-4.1667-4.5834l1.1667-1.4166c-2.9167-3.6666-5.3333-8.5-5.1666-10,1.6666,2,2.6666,2.5,3.75,2.75-7.3333-18.1-7.75-1-13.3418-18.35l1.25-.1666a40.7509,40.7509,0,0,1-2.1667-4.25l.5-5c-5.25-6.1667-1.5-25.85-.75-36.6833.5833-4.5,4.4167-9.1667,7.3333-16.5083l-1.75-.3334c3.3334-5.9166,19.5083-23.9332,27.0083-23.0082,3.5834-4.5834-.75,0-1.5-1.1667,8-8.2583,10.5-5.8334,15.8417-7.3333,5.8333-3.3417-5,1.3333-2.25-1.2583,10-2.5,7.0834-5.8334,20.175-7.0834,1.3333.8333-3.25,1.1667-4.3333,2.1667,8.3334-4.0834,26.2582-3.0834,38.0164,2.25,13.5828,6.4165,28.8416,25.0912,29.4246,42.7665l.6666.1667c-.3332,7.0833,1.0834,15.175-1.4166,22.5916l1.6666-3.5M479.6043,510.3l-.5209,2.3333c2.7084,2.9167,4.8959,6.0834,8.3334,8.4167-2.5-3.9167-4.3751-5.5-7.8125-10.8335m8.4867.4242a24.1994,24.1994,0,0,1-6.0077-4.9242c1.55,3.03,5.039,5.682,8.3333,8.3334l-2.3256-3.4092M577.8748,490.2l-.7675,1.25a49.1042,49.1042,0,0,1-7.5658,18.4333A46.1965,46.1965,0,0,0,577.7656,490.2M503.75,408.3334c2.25-6.9444,5.5-3.4718,7.9166-8.3333-3.0833,2.0833-6.1667,3.4719-9.1664,6.9444l1.25,1.3889M427.1473,442.85c1.6028,7.8295-9.8462,10.9887,2.5188,5.7691,6.8693-9.0654-2.5188-2.4725-2.29-5.7691m-6.982,23.5083c4.543-3.8691,5.6787-6.1507,7.5716-8.3333-13.25,4.365-6.4358,5.2579-7.5716,8.2341" transform="translate(250)" style="fill:#a81d33;fill-rule:evenodd"/></svg>