<svg id="图层_1" data-name="图层 1" xmlns="http://www.w3.org/2000/svg" viewBox="0 0 1500 250.0001"><title>featuredImage</title><rect width="1500" height="250" style="fill:none"/><path id="Shape" d="M519.5832,508.1927c-4.1666,0,.8338,6.3135,6.26,8.8386,1.4584-3.1564,2.8128-6.9448,4.0626-10.4167a11.1966,11.1966,0,0,1-10.3125,1.5781M542.9,501.6145a25.9322,25.9322,0,0,0,6.8188-11.0416c-.87,2.8129-2.9011,5.2083-4.7875,7.6041-10.8813,4.8959-1.0157-2.8128,0-5.8333-11.6063,10.5209-1.5959,6.25-2.0313,9.2708m15.04-17.6093c2.5014-13.0672-7.0011-9.08-10.0021-4.0052,3.501.7249,6.501,9.0614,10.0021,3.9875M504.0335,378.2293c3.5764,3.4722,8.0459,6.0764,7.5094,10.4166,4.1125-4.34,5.0073-8.6806-7.6885-10.4166m13.3333,1.25-10.4168,10.4166,9.7229-3.4721V379.48m60.8293,103.583c.2082,6.6666-2.0834,9.8957-3.9581,15.6249l-3.6466,1.885c-2.9167,5.625.3125,3.6459-1.7708,8.125-4.5833,4.0624-13.9583,12.7081-16.875,13.5519-2.0938,0,1.4583-2.6042,1.979-3.5417-6.1562,4.1666-5.01,6.25-14.2812,8.8542l-.3125-.625c-23.1357,10.8333-55.2393-10.625-54.7185-40.0208-.3125,1.7708-.7291,1.3542-1.25,2.0833a37.002,37.002,0,0,1,20.8437-36.4686,35.0017,35.0017,0,0,1,38.8748,5,34.7969,34.7969,0,0,0-28.3437-13.5418c-12.2914.1041-23.76,7.9161-27.6144,16.3541-6.25,3.9581-6.9791,15.3125-9.6874,17.302-3.76,27.0938,6.875,38.7709,24.7916,52.5208,2.8128,1.9791.8338,2.1875,1.25,3.6459a48.9759,48.9759,0,0,1-15.9372-12.0826c2.3958,3.4375,4.8959,6.875,8.3334,9.4792-5.7292-1.8749-13.2293-13.5418-15.4168-14.0625,9.6876,17.2917,39.3748,30.427,54.8019,23.9583a64.6174,64.6174,0,0,1-24.2708-2.9166c-3.4376-1.6668-8.0207-5.3126-7.2914-5.9371a60.4267,60.4267,0,0,0,61.4788-8.75c4.5833-3.6459,9.6876-9.7917,11.1458-9.8959-2.0833,3.3333.4167,1.6667-1.25,4.5833,4.5833-7.5-2.0833-3.125,4.7919-12.9166l2.5,3.4375c-.9375-6.25,7.7083-13.76,6.875-23.5625,1.979-3.1249,2.0833,3.125,0,10.1042,3.0209-7.7083.8334-8.8541,1.5626-15.2083a49.4716,49.4716,0,0,1,2.3958,6.5625c-1.8751-7.2917,2.0833-12.5,2.9166-16.6667-.9375-.5208-2.9166,3.125-3.3333-5.5208,0-3.8542,1.0417-2.0833,1.4584-2.9167-.8338-.5208-2.7084-3.3334-3.9581-8.9687.8338-1.3542,2.2917,3.4375,3.5417,3.5417-.8333-4.3751-2.0833-7.8126-2.0833-11.25-3.5417-7.0832-1.25,1.0417-4.1666-3.1249-3.5417-11.3646,3.125-2.6042,3.5415-7.7083,5.625,8.0208,8.75,20.4166,10.2188,25.6249a99.5369,99.5369,0,0,0-5.1041-18.3337c1.6666.7292-2.7083-12.9271,2.1875-3.8541a81.4961,81.4961,0,0,0-38.1458-45.76c1.8749,1.7708,4.3749,4.0625,3.4375,4.375-7.8125-4.6875-6.4584-5-7.6042-6.9791-6.3541-2.6042-6.771.2083-11.0417,0-12.0832-6.4583-14.3749-5.7292-25.4374-9.8958l.5207,2.3958c-8.0207-2.6042-9.3749,1.0417-18.0206,0-.5207-.4167,2.8129-1.4583,5.5206-1.875-7.7184,1.0416-7.3018-1.4583-14.9059.3125a51.4473,51.4473,0,0,1,5.7292-3.3333c-6.25.4167-15,3.6458-12.2917.7291-10.3021,4.6875-28.5625,11.1459-38.7708,20.7292l-.3021-2.2917c-4.6875,5.625-20.4166,16.7812-21.6666,24.0729l-1.3646.3126c-2.3958,4.1666-3.958,8.8541-5.9371,13.1354-3.1251,5.4166-4.6875,2.0833-4.1667,2.9166-6.25,12.708-9.3749,23.4478-12.0833,32.3124,1.875,2.8129,0,17.1875.7291,28.75-3.1249,56.9062,40,112.25,87.1145,125.0624,6.9792,2.3959,17.1873,2.3959,25.9373,2.6042-10.3125-2.9167-11.6664-1.5625-21.6665-5.1042-7.2916-3.3333-8.8541-7.2917-13.9582-11.7708l2.0833,3.6458c-10.1146-3.5416-5.9371-4.3749-14.1771-6.9792l2.1875-2.8128c-3.2292-.3125-8.6459-5.5208-10.1042-8.4375l-3.5416.1042c-4.2709-5.2187-6.5625-9.073-6.3542-12.0938l-1.1563,2.0833c-1.3541-2.1874-15.8333-19.802-8.3332-15.74-1.3542-1.25-3.2292-2.0833-5.2084-5.7291l1.4583-1.7708c-3.6458-4.5833-6.6666-10.625-6.4582-12.5,2.0833,2.5,3.3333,3.125,4.6875,3.4376-9.1667-22.6251-9.6876-1.25-16.6772-22.9376l1.5625-.2082a50.9628,50.9628,0,0,1-2.7084-5.3126l.6251-6.25c-6.5625-7.7084-1.875-32.3125-.9375-45.8542.7291-5.625,5.5208-11.4584,9.1667-20.6354l-2.1875-.4167c4.1666-7.3957,24.3853-29.9166,33.76-28.76,4.4792-5.7291-.9374,0-1.875-1.4583,10-10.323,13.125-7.2917,19.8021-9.1667,7.2916-4.177-6.25,1.6666-2.8128-1.5729,12.5-3.125,8.8542-7.2917,25.2187-8.8542,1.6666,1.0416-4.0625,1.4583-5.4166,2.7084,10.4167-5.1042,32.8227-3.8542,47.5205,2.8128,16.9785,8.0206,36.0519,31.364,36.7807,53.4581l.8333.2083c-.4166,8.8541,1.3542,18.9687-1.7708,28.24l2.0833-4.375M474.5054,512.875l-.6511,2.9167c3.3855,3.6458,6.12,7.6042,10.4167,10.5208-3.1249-4.8959-5.4687-6.875-9.7656-13.5418m10.6085.53c-3.3915-1.775-5.3295-4.0249-7.51-6.1552,1.938,3.7873,6.2987,7.1024,10.4166,10.4167l-2.9069-4.2615m112.23-25.5507-.9594,1.5624a61.38,61.38,0,0,1-9.4573,23.0416,57.7458,57.7458,0,0,0,10.28-24.6041m-92.52-102.3332c2.8128-8.6806,6.875-4.34,9.8959-10.4167-3.8543,2.6042-7.7084,4.34-11.4582,8.6805l1.5623,1.7362m-95.7532,43.1458c2.0035,9.7869-12.3077,13.7359,3.1484,7.2113,8.5867-11.3317-3.1484-3.0906-2.8622-7.2113m-8.7276,29.3854c5.6788-4.8364,7.0985-7.6884,9.4645-10.4167-16.5629,5.4563-8.0448,6.5724-9.4645,10.2927" transform="translate(250 -375)" style="fill:#a81d33;fill-rule:evenodd"/></svg>