<svg id="图层_1" data-name="图层 1" xmlns="http://www.w3.org/2000/svg" viewBox="0 0 1500 250"><title>featuredImage</title><rect width="1500" height="250" style="fill:none"/><path d="M197.44,436.5232,110.236,378.4453c-6.8976-4.5937-18.0808-4.5937-24.9783,0L-1.9461,436.5232c-6.8976,4.5937-6.8976,12.0418,0,16.6355l87.204,58.0779c6.8975,4.5938,18.0808,4.5938,24.9783,0L197.44,453.1587C204.3376,448.565,204.3376,441.117,197.44,436.5232Z" transform="translate(250 -375)" style="fill:#fcb327"/><path d="M198.1719,492.9954l-3.8331-2.5528c-6.8976-4.5938-18.0808-4.5938-24.9784,0L97.7468,538.1372,26.1332,490.4426c-6.8976-4.5938-18.0808-4.5938-24.9783,0l-3.8332,2.5528c-5.9349,4.6216-5.6244,11.5792.9417,15.9522l81.6748,54.3955a13.7364,13.7364,0,0,0,1.2764,1.1294l3.8334,2.553a22.9164,22.9164,0,0,0,12.6989,3.4419,22.9163,22.9163,0,0,0,12.6988-3.4419l3.8334-2.553a13.7364,13.7364,0,0,0,1.2764-1.1294L197.23,508.9476C203.7963,504.5746,204.1069,497.617,198.1719,492.9954Z" transform="translate(250 -375)" style="fill:#b3b3b3;opacity:0.3700000047683716;isolation:isolate"/><path d="M198.1719,547.5272l-3.8331-2.5529c-6.8976-4.5938-18.0808-4.5938-24.9784,0L97.7468,592.669,26.1332,544.9743c-6.8976-4.5938-18.0808-4.5938-24.9783,0l-3.8332,2.5529c-5.9349,4.6216-5.6244,11.5792.9417,15.9521l81.6748,54.3955a13.7364,13.7364,0,0,0,1.2764,1.1294l3.8334,2.553a22.9173,22.9173,0,0,0,12.6989,3.442,22.9172,22.9172,0,0,0,12.6988-3.442l3.8334-2.553a13.7364,13.7364,0,0,0,1.2764-1.1294L197.23,563.4791C203.7963,559.1064,204.1069,552.1488,198.1719,547.5272Z" transform="translate(250 -375)" style="fill:#b3b3b3;opacity:0.3700000047683716;isolation:isolate"/><path d="M376.0719,551.01,348.8947,450.7684h17.8571l14.5845,59.4764q1.5636,6.4029,3.0237,12.8059,1.457,6.4029,2.8813,13.0193,3.4149-16.4342,6.5453-27.675l16.2919-57.6266h16.4343l16.2209,57.6266q3.4148,12.2369,6.4738,27.675,2.9167-13.4462,3.9129-17.7148t16.9324-67.5868h17.7148L460.0218,551.01H440.244l-17.0034-61.4685q-1.992-7.0433-4.909-22.6237-3.2725,16.4341-5.0512,22.6237L395.9924,551.01Z" transform="translate(250 -375)" style="fill:#666"/><path d="M512.0281,517.6437q.3557,11.17,4.9445,17.1813a14.9345,14.9345,0,0,0,12.5569,6.0117,17.517,17.517,0,0,0,9.64-2.7034q4.2316-2.7036,7.6483-9.1065l12.877,6.19A42.165,42.165,0,0,1,551.3,545.461a28.3821,28.3821,0,0,1-9.7824,5.2294,44.7833,44.7833,0,0,1-13.2684,1.7428q-16.0076,0-24.687-10.0672-8.6811-10.0673-8.68-28.28,0-18.3552,9.1064-27.9241,9.1065-9.5673,24.8293-9.5688,15.5807,0,23.8333,10.2091t8.2526,28.849v1.9919Zm16.2209-29.7383a14.1422,14.1422,0,0,0-11.4542,5.1224q-4.2687,5.1223-4.6244,14.1578h31.73q-.7113-9.6743-4.4109-14.4779T528.249,487.9054Z" transform="translate(250 -375)" style="fill:#666"/><path d="M647.6286,514.1577q0,18.1418-8.2171,28.1374t-23.2285,9.9958q-16.1513,0-22.8373-13.2328h-.2845a84.407,84.407,0,0,1-.8538,11.9522H576.2712q.64-6.6164.64-16.292V447.5669h16.3632v31.5168q0,2.8456-.0712,5.6557-.0709,2.8118-.2134,5.5137h.2846A24.9,24.9,0,0,1,602.31,480.08q5.6918-3.5573,14.94-3.5572,14.5846,0,22.4815,9.7822T647.6286,514.1577Zm-17.0746,0q0-25.6815-18.0706-25.6831-9.6043,0-14.5489,6.7587-4.9459,6.76-4.9446,19.4935,0,12.45,4.8379,19.0667t14.5135,6.6163q18.2128,0,18.2128-26.2521Z" transform="translate(250 -375)" style="fill:#666"/><path d="M728.6617,522.7662q0,14.371-9.142,22.019-9.1419,7.6464-26.43,7.6483-15.2249,0-23.94-6.6164t-11.3475-19.992l16.0786-2.7746q3.486,16.2919,20.0626,16.2919,18.0707,0,18.0705-15.5805a13.6318,13.6318,0,0,0-1.7784-7.3278,14.786,14.786,0,0,0-4.9091-4.7667,32.5311,32.5311,0,0,0-7.3633-3.2369q-4.2331-1.3161-9.0709-2.739-11.6676-3.3438-16.8967-6.9721a24.659,24.659,0,0,1-8.0392-9.1064q-2.8105-5.4782-2.8105-13.66,0-12.5924,8.395-19.6357t23.3353-7.0433q14.2287,0,22.2325,5.6557t11.0629,17.75l-16.292,2.9169q-3.2014-13.7294-17.1457-13.7308-7.1857,0-11.063,3.5217t-3.8773,9.7822a13.3624,13.3624,0,0,0,1.743,7.15,14.8911,14.8911,0,0,0,5.2293,4.8734q3.486,2.0646,13.4461,5.1224,11.6678,3.6284,16.6477,6.3674a28.6874,28.6874,0,0,1,7.897,6.0828,22.7828,22.7828,0,0,1,4.411,7.7547A31.9445,31.9445,0,0,1,728.6617,522.7662Z" transform="translate(250 -375)" style="fill:#666"/><path d="M765.5855,552.2909q-8.5372,0-13.4818-4.8734-4.9447-4.8719-4.9446-13.98v-43.469H736.4164V478.0876h10.9563l5.1936-17.6436h10.8851v17.6436h17.5725v11.8811H763.4514v39.3426q0,10.8153,9.1775,10.8139a51.1962,51.1962,0,0,0,9.32-.9248v10.9562A64.043,64.043,0,0,1,765.5855,552.2909Z" transform="translate(250 -375)" style="fill:#666"/><path d="M852.0967,551.01h-15.794l-.5691-11.5253q-3.6283,7.1143-8.7507,10.0313a25.1054,25.1054,0,0,1-12.5926,2.9169q-11.2407,0-17.1813-5.8338-5.94-5.8323-5.9406-16.2209,0-11.3814,8.11-17.43,8.1105-6.0457,23.9045-6.5452l12.45-.4268V503.7q0-8.4661-2.739-12.2724-2.7391-3.8046-9.2842-3.8061-5.7625,0-8.5017,2.17a11.3062,11.3062,0,0,0-3.7351,6.7231l-15.7939-2.49q2.1343-9.32,8.9286-13.375t19.3156-4.0549q14.5843,0,21.3787,6.901t6.7943,21.4144ZM819.37,540.9078q7.6123,0,12.0234-5.3t4.4109-13.6241v-6.6164l-7.7546.2847q-10.4583.498-15.047,3.6994t-4.5888,10.0313Q808.4142,540.9079,819.37,540.9078Z" transform="translate(250 -375)" style="fill:#666"/><path d="M899.3363,552.4332q-15.0113,0-23.1574-9.8179t-8.146-27.675q0-18.3552,8.3239-28.3509t23.5486-9.9957q24.8294,0,28.4577,22.6949L912,500.64q-.7827-6.0457-4.02-9.0709a11.1883,11.1883,0,0,0-7.9325-3.0236q-8.0393,0-11.7744,6.3318-3.7351,6.3333-3.7351,19.3514,0,13.2327,3.8774,19.7777,3.8772,6.5469,11.0628,6.5453,10.7428,0,12.806-13.4462l15.9363,1.7075Q924.3792,552.4345,899.3363,552.4332Z" transform="translate(250 -375)" style="fill:#666"/><path d="M988.0529,551.01l-22.41-32.3706-8.11,6.5453V551.01H941.0979V447.5669h16.4339v63.3893l29.3114-32.8685h18.7109L977.1676,508.395l29.9517,42.6153Z" transform="translate(250 -375)" style="fill:#666"/></svg>