<svg id="图层_1" data-name="图层 1" xmlns="http://www.w3.org/2000/svg" viewBox="0 0 1920 1080"><title>WebStack</title><path d="M512.6,449.2032,387.8644,366.1291c-9.8662-6.5709-25.8626-6.5709-35.7288,0L227.4,449.2032c-9.8663,6.5709-9.8663,17.2245,0,23.7954l124.7359,83.0741c9.8662,6.5709,25.8626,6.5709,35.7288,0L512.6,472.9986C522.4666,466.4277,522.4666,455.7741,512.6,449.2032Z" style="fill:#fcb327"/><path d="M513.6473,529.9806l-5.4829-3.6515c-9.8662-6.5709-25.8626-6.5709-35.7288,0L370,594.5512,267.5644,526.3291c-9.8662-6.5709-25.8626-6.5709-35.7288,0l-5.4829,3.6515c-8.4893,6.6108-8.0451,16.5629,1.347,22.818l116.827,77.8068a19.6147,19.6147,0,0,0,1.8257,1.6155l5.4832,3.6518c5.0094,3.3363,11.5991,4.975,18.1644,4.9234,6.5653.0516,13.155-1.5871,18.1644-4.9234l5.4832-3.6518a19.6147,19.6147,0,0,0,1.8257-1.6155L512.3,552.7986C521.6924,546.5435,522.1366,536.5914,513.6473,529.9806Z" style="fill:#b3b3b3;opacity:0.37"/><path d="M513.6473,607.9825l-5.4829-3.6516c-9.8662-6.5709-25.8626-6.5709-35.7288,0L370,672.553,267.5644,604.3309c-9.8662-6.5709-25.8626-6.5709-35.7288,0l-5.4829,3.6516c-8.4893,6.6107-8.0451,16.5628,1.347,22.8179l116.827,77.8068a19.6147,19.6147,0,0,0,1.8257,1.6155l5.4832,3.6518c5.0094,3.3363,11.5991,4.975,18.1644,4.9234,6.5653.0516,13.155-1.5871,18.1644-4.9234l5.4832-3.6518a19.6147,19.6147,0,0,0,1.8257-1.6155L512.3,630.8C521.6924,624.5453,522.1366,614.5932,513.6473,607.9825Z" style="fill:#b3b3b3;opacity:0.37"/><path d="M768.114,612.9647,729.24,469.5794h25.5427l20.8616,85.0746q2.2366,9.1587,4.325,18.3175,2.0839,9.1587,4.1214,18.6228,4.8847-23.5074,9.3623-39.5862l23.3039-82.4287h23.5075l23.2022,82.4287q4.8846,17.5035,9.26,39.5862,4.1722-19.2334,5.597-25.3392t24.22-96.6757h25.3392L888.1954,612.9647h-28.29l-24.3216-87.924q-2.8492-10.0746-7.0217-32.3609-4.681,23.5074-7.2252,32.3609l-24.7286,87.924Z" style="fill:#666"/><path d="M962.5848,565.2374q.5088,15.9769,7.0726,24.576,6.5637,8.6011,17.9613,8.5991a25.0558,25.0558,0,0,0,13.789-3.867q6.053-3.8671,10.94-13.0258l18.4192,8.8534q-6.0061,9.67-12.0081,14.654a40.5976,40.5976,0,0,1-13.9926,7.48A64.0538,64.0538,0,0,1,985.787,615q-22.8969,0-35.3121-14.4-12.4173-14.4-12.4152-40.4511,0-26.2551,13.0258-39.9424,13.0257-13.6851,35.5156-13.6872,22.2863,0,34.0909,14.6031t11.8046,41.2653v2.8493ZM985.787,522.7q-10.28,0-16.384,7.327-6.1059,7.327-6.6147,20.2511h45.3867q-1.0176-13.8378-6.3093-20.709Q996.574,522.7,985.787,522.7Z" style="fill:#666"/><path d="M1156.5468,560.251q0,25.95-11.7537,40.2476-11.7537,14.2957-33.2259,14.2979-23.1025,0-32.6663-18.9281h-.407a120.7441,120.7441,0,0,1-1.2212,17.0963h-22.7951q.9159-9.464.9159-23.3039V465h23.4057v45.0814q0,4.0706-.1018,8.09-.1017,4.0218-.3053,7.8867h.4071a35.6181,35.6181,0,0,1,12.924-14.5522q8.1411-5.0882,21.37-5.0882,20.8617,0,32.1574,13.9925T1156.5468,560.251Zm-24.4233,0q0-36.7345-25.8481-36.7368-13.738,0-20.8107,9.6676-7.0747,9.67-7.0726,27.8833,0,17.8087,6.92,27.2728t20.76,9.464Q1132.1235,597.8019,1132.1235,560.251Z" style="fill:#666"/><path d="M1272.4559,572.5645q0,20.5563-13.0767,31.4959-13.0766,10.9374-37.8053,10.94-21.7775,0-34.2435-9.464T1171.0991,576.94l22.9986-3.9688q4.9865,23.304,28.6974,23.3039,25.848,0,25.848-22.2863a19.5,19.5,0,0,0-2.544-10.4816,21.1491,21.1491,0,0,0-7.0218-6.8182,46.5266,46.5266,0,0,0-10.5325-4.63q-6.055-1.8827-12.9749-3.9179-16.6893-4.7829-24.169-9.9729a35.2715,35.2715,0,0,1-11.4993-13.0257q-4.02-7.8359-4.02-19.5387,0-18.0121,12.0081-28.0868t33.3786-10.0747q20.3527,0,31.8012,8.09t15.8243,25.39l-23.304,4.1723q-4.5794-19.6383-24.5251-19.6405-10.2782,0-15.8243,5.0374t-5.5461,13.9925a19.1145,19.1145,0,0,0,2.4932,10.2273,21.3021,21.3021,0,0,0,7.48,6.9708q4.9865,2.9532,19.2333,7.327,16.6893,5.19,23.8128,9.1079a41.0332,41.0332,0,0,1,11.2958,8.7008,32.5866,32.5866,0,0,1,6.3094,11.0922A45.6948,45.6948,0,0,1,1272.4559,572.5645Z" style="fill:#666"/><path d="M1325.2714,614.7965q-12.2117,0-19.2843-6.9709-7.0727-6.9687-7.0726-19.9966V525.6513h-15.3663V508.6567H1299.22l7.4288-25.2374h15.57v25.2374h25.1356v16.9946h-25.1356v56.2754q0,15.47,13.1275,15.4681a73.23,73.23,0,0,0,13.3311-1.3229v15.6717A91.6121,91.6121,0,0,1,1325.2714,614.7965Z" style="fill:#666"/><path d="M1449.0163,612.9647h-22.5916l-.8141-16.4857q-5.19,10.1763-12.517,14.3487T1395.0814,615q-16.0786,0-24.576-8.3446-8.4972-8.3425-8.4973-23.2022,0-16.28,11.6011-24.9322,11.6011-8.6478,34.1927-9.3622l17.8087-.6106v-3.2565q0-12.11-3.9179-17.5543-3.918-5.4422-13.28-5.4443-8.2429,0-12.1608,3.1038-3.9179,3.1059-5.3426,9.6167l-22.5916-3.5618q3.0529-13.331,12.7714-19.1316t27.6289-5.8q20.8616,0,30.58,9.8711t9.7185,30.6309Zm-46.8114-14.4505q10.8887,0,17.1981-7.5814,6.3093-7.5792,6.3093-19.4878v-9.464l-11.0922.4071q-14.9594.7124-21.5231,5.2917t-6.5638,14.3487Q1386.5332,598.5142,1402.2049,598.5142Z" style="fill:#666"/><path d="M1516.5875,615q-21.4722,0-33.1241-14.0434t-11.652-39.5862q0-26.2551,11.9064-40.5529,11.9064-14.2957,33.6838-14.2978,35.5157,0,40.7056,32.4627l-23.4057,1.9335q-1.1194-8.6478-5.75-12.9749a16.0037,16.0037,0,0,0-11.3466-4.325q-11.4994,0-16.842,9.057-5.3426,9.0591-5.3426,27.68,0,18.928,5.5462,28.29,5.5461,9.3645,15.8242,9.3623,15.3665,0,18.3175-19.2334l22.7952,2.4424Q1552.4084,615.0021,1516.5875,615Z" style="fill:#666"/><path d="M1643.4871,612.9647l-32.0556-46.3026-11.6011,9.3623v36.94h-23.5075V465H1599.83v90.6716l41.9267-47.0149h26.7639l-40.6038,43.3514,42.8426,60.9566Z" style="fill:#666"/><rect width="1920" height="1080" style="fill:none"/></svg>