<svg id="图层_1" data-name="图层 1" xmlns="http://www.w3.org/2000/svg" xmlns:xlink="http://www.w3.org/1999/xlink" viewBox="0 0 1500 250"><defs><clipPath id="clip-path" transform="translate(250 -375)"><rect id="SVGID" x="793.2532" y="375.0001" width="249.9998" height="249.9998" style="fill:none"/></clipPath></defs><title>featuredImage</title><rect width="1500" height="250" style="fill:none"/><circle cx="1168.2531" cy="125" r="104.1666" style="fill:#fff"/><g style="clip-path:url(#clip-path)"><path d="M918.12,624.6949c-68.6969,0-124.903-56.1457-124.903-124.7674s56.206-124.769,124.9029-124.769c68.6953,0,124.9014,56.1458,124.9014,124.769,0,68.6216-56.206,124.7674-124.9014,124.7674ZM981.3513,485.89H910.3128a6.7133,6.7133,0,0,0-6.2451,6.2384V507.725a6.7126,6.7126,0,0,0,6.2451,6.2387h42.9354a6.7133,6.7133,0,0,1,6.2451,6.2384v3.1187a18.9859,18.9859,0,0,1-18.7356,18.7158H882.21a6.7128,6.7128,0,0,1-6.2455-6.2388V476.5333A18.9866,18.9866,0,0,1,894.7,457.8175h86.651a6.7123,6.7123,0,0,0,6.2451-6.2384V435.9834a6.7133,6.7133,0,0,0-6.2451-6.2387H894.7a46.1166,46.1166,0,0,0-46.0574,46.0083v86.5583a6.7111,6.7111,0,0,0,6.2438,6.2387h91.3361a41.6248,41.6248,0,0,0,41.3735-41.3295V492.13a6.7132,6.7132,0,0,0-6.2451-6.2384Z" transform="translate(250 -375)" style="fill:#cb261c"/></g><path d="M84.9213,375a128.179,128.179,0,0,0-40.5361,249.778c6.409,1.2083,8.76-2.755,8.76-6.1631,0-3.0437-.1075-11.1074-.16-21.7885-35.654,7.7326-43.1738-17.1973-43.1738-17.1973-5.8317-14.793-14.2583-18.7448-14.2583-18.7448-11.6113-7.9467.8971-7.7864.8971-7.7864,12.87.897,19.631,13.2012,19.631,13.2012,11.4292,19.5994,30.0041,13.9386,37.3309,10.66,1.1541-8.289,4.4545-13.94,8.1178-17.1436-28.4651-3.2053-58.3833-14.2271-58.3833-63.3392a49.4525,49.4525,0,0,1,13.1917-34.3934c-1.4426-3.2366-5.7684-16.2667,1.1221-33.9228,0,0,10.7334-3.44,35.2465,13.1378a120.8415,120.8415,0,0,1,64.0871,0c24.353-16.5775,35.0878-13.1378,35.0878-13.1378,6.8894,17.6558,2.5632,30.6862,1.2824,33.9228A49.6555,49.6555,0,0,1,166.3,496.4768c0,49.2405-29.96,60.0814-58.4789,63.2333,4.4861,3.8443,8.652,11.7065,8.652,23.7111,0,17.1549-.16,30.9333-.16,35.0988,0,3.3639,2.2429,7.37,8.8119,6.0874A128.016,128.016,0,0,0,84.9213,375" transform="translate(250 -375)"/><path d="M49.5439,624.4371h70.63a5.9974,5.9974,0,0,1-3.8651-5.9235c0-4.1656.16-17.9439.16-35.0987,0-12.0046-4.166-19.8666-8.652-23.7111,28.519-3.1515,58.4789-13.9924,58.4789-63.2329a49.6559,49.6559,0,0,0-13.1365-34.3934c1.2807-3.2366,5.607-16.2671-1.2824-33.9229,0,0-10.7348-3.44-35.0878,13.1378a120.8415,120.8415,0,0,0-64.0871,0c-24.5133-16.5774-35.2465-13.1378-35.2465-13.1378-6.8907,17.6558-2.5648,30.6863-1.1222,33.9229A49.45,49.45,0,0,0,3.1413,496.4709c0,49.1121,29.9186,60.1339,58.3833,63.3392-3.6634,3.2037-6.9638,8.8545-8.1179,17.1436-7.3268,3.2781-25.9016,8.939-37.3308-10.66,0,0-6.7608-12.3042-19.631-13.2013,0,0-12.5083-.16-.8972,7.7865,0,0,8.4271,3.9519,14.2588,18.7447,0,0,7.52,24.93,43.1737,17.1974.0527,10.6811.16,18.7448.16,21.7886A6.115,6.115,0,0,1,49.5439,624.4371Z" transform="translate(250 -375)" style="fill:#fff"/><path d="M498.1146,534.7222a24.3222,24.3222,0,0,0-24.0277,20.8333h-.2778a20.8583,20.8583,0,0,1-20.8333-20.8333V499.7083a24.0882,24.0882,0,0,0,17.2361,7.2361h3.875a24.2726,24.2726,0,0,0,48.0555,0h14.4444a24.3056,24.3056,0,1,0,0-6.9444H522.1424a24.2726,24.2726,0,0,0-48.0555,0h-3.875a17.236,17.236,0,0,1-16.9028-13.9027,34.6588,34.6588,0,1,0-7.2778-.6876v49.3125A27.8056,27.8056,0,0,0,473.8091,562.5h.2778a24.2923,24.2923,0,1,0,24.0277-27.7777Zm62.5-48.6111a17.3612,17.3612,0,1,1-17.361,17.3613v0A17.3853,17.3853,0,0,1,560.6145,486.1111Zm-62.5,0a17.3612,17.3612,0,1,1-17.3611,17.3613v0a17.3854,17.3854,0,0,1,17.3611-17.3611ZM425.198,451.389a27.7778,27.7778,0,1,1,27.7779,27.7777h0a27.8057,27.8057,0,0,1-27.7778-27.7778Zm72.9166,125a17.3612,17.3612,0,1,1,17.3611-17.3612h0a17.3852,17.3852,0,0,1-17.3611,17.3611Z" transform="translate(250 -375)" style="fill:#3a7abf"/><path d="M469.6993,447.85a6.9448,6.9448,0,0,0-2.21-2.225l-17.7568-11.18a6.9445,6.9445,0,0,0-10.6459,5.875v22.1944a6.9514,6.9514,0,0,0,10.6041,5.9028L467.4479,457.41a6.9445,6.9445,0,0,0,2.2517-9.5593Zm-23.668,14.6636V440.32l17.757,11.18Z" transform="translate(250 -375)" style="fill:#3a7abf"/><path d="M492.08,511.7361a3.479,3.479,0,0,0,4.91,0l10.66-10.6459a3.4741,3.4741,0,0,0-4.9167-4.91l-8.2014,8.1944-2.7222-2.7153q-.0415-.0432-.0851-.0848a3.4722,3.4722,0,0,0-4.8177,5.0015Z" transform="translate(250 -375)" style="fill:#3a7abf"/><path d="M549.3993,506.5764l5.18,5.16a3.4515,3.4515,0,0,0,4.8811.0149l.0218-.0219L570.1355,501.09a3.4722,3.4722,0,0,0-4.91-4.91l-8.2014,8.1944-2.7222-2.7153a3.4722,3.4722,0,1,0-4.988,4.8316h0Q549.356,506.5346,549.3993,506.5764Z" transform="translate(250 -375)" style="fill:#3a7abf"/><circle cx="741.1702" cy="184.0277" r="3.4722" style="fill:#3a7abf"/><circle cx="755.0591" cy="184.0277" r="3.4722" style="fill:#3a7abf"/><path d="M560.6145,534.7222a24.3264,24.3264,0,0,0-24.0416,20.91,2.053,2.053,0,0,0-.3611-.0485l-3.5139.118a3.4722,3.4722,0,0,0,.1112,6.9375h.1181l3.5138-.1181a.8821.8821,0,0,0,.1459-.0347,24.2916,24.2916,0,1,0,24.0277-27.7638Zm0,41.6666a17.3612,17.3612,0,1,1,17.3611-17.3612h0A17.3852,17.3852,0,0,1,560.6145,576.3888Z" transform="translate(250 -375)" style="fill:#3a7abf"/></svg>