<svg id="图层_1" data-name="图层 1" xmlns="http://www.w3.org/2000/svg" xmlns:xlink="http://www.w3.org/1999/xlink" viewBox="0 0 1920 1080"><defs><clipPath id="clip-path"><rect id="SVGID" x="1310" y="390" width="300" height="300" style="fill:none"/></clipPath></defs><title>1</title><rect width="1920" height="1080" style="fill:none"/><circle cx="1460" cy="540" r="125" style="fill:#fff"/><g style="clip-path:url(#clip-path)"><path d="M1459.84,689.6341c-82.4363,0-149.8836-67.375-149.8836-149.7211,0-82.3479,67.4473-149.7229,149.8836-149.7229,82.4345,0,149.8818,67.375,149.8818,149.7229,0,82.3461-67.4473,149.7211-149.8818,149.7211Zm75.8779-166.5656h-85.2463a8.0561,8.0561,0,0,0-7.4942,7.4861V549.27a8.0553,8.0553,0,0,0,7.4942,7.4865h51.5226a8.056,8.056,0,0,1,7.4942,7.4861v3.7424a22.7833,22.7833,0,0,1-22.4828,22.459h-70.2577a8.0552,8.0552,0,0,1-7.4945-7.4865V511.84a22.7838,22.7838,0,0,1,22.4832-22.459h103.9813a8.0548,8.0548,0,0,0,7.4941-7.4861V463.18a8.056,8.056,0,0,0-7.4941-7.4864H1431.7363a55.34,55.34,0,0,0-55.2689,55.21v103.87a8.0534,8.0534,0,0,0,7.4926,7.4865h109.6034a49.95,49.95,0,0,0,49.6483-49.5955v-42.109a8.056,8.056,0,0,0-7.4941-7.4861Zm0,0" style="fill:#cb261c"/></g><path d="M460.0009,390a153.815,153.815,0,0,0-48.6434,299.7339c7.6908,1.45,10.5116-3.306,10.5116-7.3957,0-3.6525-.1291-13.329-.1922-26.1463-42.7848,9.2792-51.8086-20.6368-51.8086-20.6368-6.998-17.7515-17.11-22.4938-17.11-22.4938-13.9336-9.536,1.0766-9.3437,1.0766-9.3437,15.4443,1.0765,23.5572,15.8415,23.5572,15.8415,13.7151,23.5193,36.0049,16.7263,44.7971,12.7925,1.3849-9.9468,5.3454-16.7278,9.7414-20.5723-34.1581-3.8463-70.06-17.0725-70.06-76.0071,0-16.79,5.9612-30.5056,15.83-41.2722-1.7311-3.8839-6.9221-19.52,1.3466-40.7074,0,0,12.88-4.1276,42.2958,15.7654a145.01,145.01,0,0,1,76.9046,0c29.2236-19.893,42.1054-15.7654,42.1054-15.7654,8.2673,21.187,3.0758,36.8235,1.5389,40.7074a59.5865,59.5865,0,0,1,15.7638,41.2722c0,59.0886-35.9519,72.0977-70.1747,75.88,5.3833,4.6131,10.3824,14.0478,10.3824,28.4534,0,20.5858-.1922,37.12-.1922,42.1186,0,4.0367,2.6916,8.8436,10.5743,7.3048A153.6193,153.6193,0,0,0,460.0009,390"/><path d="M417.5479,689.3247h84.7555a7.1968,7.1968,0,0,1-4.6381-7.1082c0-4.9987.1922-21.5327.1922-42.1185,0-14.4056-4.9991-23.84-10.3824-28.4534,34.2228-3.7818,70.1747-16.7909,70.1747-75.8795a59.5869,59.5869,0,0,0-15.7638-41.2722c1.5369-3.8839,6.7284-19.5205-1.5389-40.7075,0,0-12.8818-4.1275-42.1054,15.7654a145.01,145.01,0,0,0-76.9046,0c-29.4159-19.8929-42.2958-15.7654-42.2958-15.7654-8.2688,21.187-3.0777,36.8236-1.3466,40.7075-9.8692,10.7666-15.83,24.4817-15.83,41.2722,0,58.9346,35.9024,72.1608,70.06,76.0071-4.396,3.8445-8.3565,10.6254-9.7414,20.5723-8.7922,3.9338-31.082,10.7268-44.7971-12.7925,0,0-8.1129-14.765-23.5572-15.8416,0,0-15.01-.1922-1.0766,9.3438,0,0,10.1125,4.7423,17.1105,22.4937,0,0,9.0238,29.9161,51.8085,20.6369.0632,12.8173.1923,22.4937.1923,26.1463A7.3382,7.3382,0,0,1,417.5479,689.3247Z" style="fill:#fff"/><path d="M955.8333,581.6667a29.1868,29.1868,0,0,0-28.8333,25h-.3333a25.03,25.03,0,0,1-25-25V539.65a28.9062,28.9062,0,0,0,20.6833,8.6833H927a29.1272,29.1272,0,0,0,57.6667,0H1002A29.1667,29.1667,0,1,0,1002,540H984.6667A29.1272,29.1272,0,0,0,927,540h-4.65a20.6833,20.6833,0,0,1-20.2833-16.6833,41.59,41.59,0,1,0-8.7334-.825v59.175A33.3669,33.3669,0,0,0,926.6667,615H927a29.1508,29.1508,0,1,0,28.8333-33.3333Zm75-58.3334A20.8334,20.8334,0,1,1,1010,544.1667,20.8624,20.8624,0,0,1,1030.8333,523.3333Zm-75,0A20.8334,20.8334,0,1,1,935,544.1667,20.8624,20.8624,0,0,1,955.8333,523.3333Zm-87.5-41.6666A33.3334,33.3334,0,1,1,901.6667,515,33.3669,33.3669,0,0,1,868.3333,481.6667Zm87.5,150a20.8334,20.8334,0,1,1,20.8334-20.8334A20.8623,20.8623,0,0,1,955.8333,631.6667Z" style="fill:#3a7abf"/><path d="M921.7349,477.42a8.3333,8.3333,0,0,0-2.6516-2.67L897.775,461.3333a8.3334,8.3334,0,0,0-12.775,7.05v26.6334A8.3417,8.3417,0,0,0,897.725,502.1l21.3083-13.2083A8.3333,8.3333,0,0,0,921.7349,477.42Zm-28.4016,17.5963V468.3833L914.6417,481.8Z" style="fill:#3a7abf"/><path d="M948.5917,554.0833a4.1746,4.1746,0,0,0,5.8917,0l12.7916-12.775a4.169,4.169,0,0,0-5.9-5.8916l-9.8417,9.8333-3.2666-3.2583q-.05-.0518-.1021-.1018a4.1667,4.1667,0,0,0-5.7813,6.0018Z" style="fill:#3a7abf"/><path d="M1017.375,547.8917l6.2166,6.1916a4.1418,4.1418,0,0,0,5.8573.0179l.0261-.0262,12.7833-12.7667a4.1666,4.1666,0,0,0-5.8916-5.8916l-9.8417,9.8333-3.2667-3.2583a4.1666,4.1666,0,1,0-5.9856,5.7979Q1017.323,547.8417,1017.375,547.8917Z" style="fill:#3a7abf"/><circle cx="947.5" cy="610.8333" r="4.1667" style="fill:#3a7abf"/><circle cx="964.1667" cy="610.8333" r="4.1667" style="fill:#3a7abf"/><path d="M1030.8333,581.6667a29.1918,29.1918,0,0,0-28.85,25.0916,2.465,2.465,0,0,0-.4333-.0583l-4.2167.1416a4.1667,4.1667,0,0,0,.1334,8.3251h.1417l4.2166-.1417a1.0674,1.0674,0,0,0,.175-.0417,29.15,29.15,0,1,0,28.8333-33.3166Zm0,50a20.8334,20.8334,0,1,1,20.8334-20.8334A20.8623,20.8623,0,0,1,1030.8333,631.6667Z" style="fill:#3a7abf"/></svg>