<svg id="图层_1" data-name="图层 1" xmlns="http://www.w3.org/2000/svg" viewBox="0 0 1500 1000"><title>featuredImagePreview</title><rect width="1500" height="1000" style="fill:none"/><path d="M27.7282,452.5V547.5a30,30,0,0,0,15,25.9807L125,620.98a30,30,0,0,0,30,0l82.2718-47.5a30,30,0,0,0,15-25.9807V452.5a30,30,0,0,0-15-25.9807L155,379.02a30,30,0,0,0-30,0l-82.2718,47.5A30,30,0,0,0,27.7282,452.5Z" transform="translate(250)" style="fill:#c9177e;fill-rule:evenodd"/><path d="M49.4512,465.0421v69.9158a30,30,0,0,0,15,25.9807L125,595.8965a30,30,0,0,0,30,0l60.5488-34.9579a30,30,0,0,0,15-25.9807V465.0421a30,30,0,0,0-15-25.9807L155,404.1035a30,30,0,0,0-30,0L64.4512,439.0614A30,30,0,0,0,49.4512,465.0421Z" transform="translate(250)" style="fill:#ff4088;fill-rule:evenodd"/><path d="M99.0135,550V450H116.26v41.1639H164.379V450h16.6075V550H164.379V505.5H116.26V550Z" transform="translate(250)" style="fill:#fff"/><path d="M267.7282,452.5V547.5a30,30,0,0,0,15,25.9807L365,620.98a30,30,0,0,0,30,0l82.2718-47.5a30,30,0,0,0,15-25.9807V452.5a30,30,0,0,0-15-25.9807L395,379.02a30,30,0,0,0-30,0l-82.2718,47.5A30,30,0,0,0,267.7282,452.5Z" transform="translate(250)" style="fill:#0083c0;fill-rule:evenodd"/><path d="M289.4512,465.0421v69.9158a30,30,0,0,0,15,25.9807L365,595.8965a30,30,0,0,0,30,0l60.5488-34.9579a30,30,0,0,0,15-25.9807V465.0421a30,30,0,0,0-15-25.9807L395,404.1035a30,30,0,0,0-30,0l-60.5488,34.9579A30,30,0,0,0,289.4512,465.0421Z" transform="translate(250)" style="fill:#0594cb;fill-rule:evenodd"/><path d="M507.7282,452.5V547.5a30,30,0,0,0,15,25.9807L605,620.98a30,30,0,0,0,30,0l82.2718-47.5a30,30,0,0,0,15-25.9807V452.5a30,30,0,0,0-15-25.9807L635,379.02a30,30,0,0,0-30,0l-82.2718,47.5A30,30,0,0,0,507.7282,452.5Z" transform="translate(250)" style="fill:#00a88a;fill-rule:evenodd"/><path d="M529.4512,465.0421v69.9158a30,30,0,0,0,15,25.9807L605,595.8965a30,30,0,0,0,30,0l60.5488-34.9579a30,30,0,0,0,15-25.9807V465.0421a30,30,0,0,0-15-25.9807L635,404.1035a30,30,0,0,0-30,0l-60.5488,34.9579A30,30,0,0,0,529.4512,465.0421Z" transform="translate(250)" style="fill:#33ba91;fill-rule:evenodd"/><path d="M747.7282,452.5V547.5a30,30,0,0,0,15,25.9807L845,620.98a30,30,0,0,0,30,0l82.2718-47.5a30,30,0,0,0,15-25.9807V452.5a30,30,0,0,0-15-25.9807L875,379.02a30,30,0,0,0-30,0l-82.2718,47.5A30,30,0,0,0,747.7282,452.5Z" transform="translate(250)" style="fill:#fcd804;fill-rule:evenodd"/><path d="M769.4512,465.0421v69.9158a30,30,0,0,0,15,25.9807L845,595.8965a30,30,0,0,0,30,0l60.5488-34.9579a30,30,0,0,0,15-25.9807V465.0421a30,30,0,0,0-15-25.9807L875,404.1035a30,30,0,0,0-30,0l-60.5488,34.9579A30,30,0,0,0,769.4512,465.0421Z" transform="translate(250)" style="fill:#ebb951;fill-rule:evenodd"/><path d="M379.2652,550q-19.1043,0-29.1112-9.6571-10.0086-9.6571-10.007-28.1316V450h17.0049v60.9517q0,12.1764,5.9832,18.8594t16.62,6.683q11.2666,0,17.2148-6.928t5.9482-19.4541V450H419.853v61.0917q0,18.8243-10.4618,28.8663T379.2652,550Z" transform="translate(250)" style="fill:#fff"/><path d="M623.0345,550q-21.1035,0-32.7242-13.2759T578.69,499.5862q0-24,11.3793-36.7931T622.5517,450q14.5518,0,23.9311,5.7586T660.2069,473.31L644.7586,478q-5.3793-14.6206-22.4138-14.6207-13.1034,0-19.8965,9.3448t-6.7931,26.8621q0,17.5173,7.2758,27.31t20.2414,9.7931q13.4482,0,22.4138-8.5518V511.0345H622.69V498.69H661.31v35.4482A45.3237,45.3237,0,0,1,644.69,545.69,55.0921,55.0921,0,0,1,623.0345,550Z" transform="translate(250)" style="fill:#fff"/><path d="M906.69,499.5862q0,15.3793-5.6207,26.8621a39.7984,39.7984,0,0,1-16.138,17.5172Q874.4138,550,859.931,550q-22.2069,0-34.4138-13.2759T813.31,499.5862q0-23.6551,12.2759-36.6207T860.069,450q22.2069,0,34.4138,13.1034T906.69,499.5862Zm-17.1035,0q0-17.3793-7.5862-26.7931t-21.931-9.4138q-14.6208,0-22.2069,9.3448t-7.5862,26.8621q0,17.5173,7.69,27.31T859.931,536.69q14.6208,0,22.138-9.4483T889.5862,499.5862Z" transform="translate(250)" style="fill:#fff"/></svg>