<svg id="图层_1" data-name="图层 1" xmlns="http://www.w3.org/2000/svg" viewBox="0 0 2160 1215"><title>hugo</title><path d="M1558.4161,368.9985l112.2619,64.305a43,43,0,0,1,21.627,37.312v142.237a40,40,0,0,1-20.702,35.037l-120.886,66.5839a42,42,0,0,1-41.216-.389l-106.2419-61.155a57,57,0,0,1-28.564-49.4V483.0045a64,64,0,0,1,31.172-54.939l98.01-58.564a54,54,0,0,1,54.54-.503Z" transform="translate(120 67.5)" style="fill:#ebb951;stroke:#fcd804;stroke-width:27px;fill-rule:evenodd"/><path d="M1171.275,367.1145l117.31,66.78a41,41,0,0,1,20.72,35.64v139.5a45,45,0,0,1-23.1,39.32l-117.32,65.34a44,44,0,0,1-43.54-.41l-105.82-61.6a56,56,0,0,1-27.83-48.4v-118.92a68,68,0,0,1,33.23-58.44l98.06-58.35a48,48,0,0,1,48.3-.46Z" transform="translate(120 67.5)" style="fill:#33ba91;stroke:#00a88a;stroke-width:27px;fill-rule:evenodd"/><path d="M788.465,365.2645l117.23,68.9a40,40,0,0,1,19.73,34.27l.73,138.67a48,48,0,0,1-24.64,42.2l-115.13,64.11a45,45,0,0,1-44.53-.42l-105.83-61.6a55,55,0,0,1-27.33-47.53v-123.05a63,63,0,0,1,29.87-53.59l99.3-61.4a49,49,0,0,1,50.6-.56Z" transform="translate(120 67.5)" style="fill:#0594cb;stroke:#0083c0;stroke-width:27px;fill-rule:evenodd"/><path d="M409.015,368.4245l114.41,66.54a44,44,0,0,1,21.88,38.04v136.43a48,48,0,0,1-24.45,41.82l-113.55,63.94a49,49,0,0,1-48.48-.23l-104.57-60.19a53,53,0,0,1-26.56-45.93v-129.47a55,55,0,0,1,26.1-46.8l102.8-63.46A51,51,0,0,1,409.015,368.4245Z" transform="translate(120 67.5)" style="fill:#ff4088;stroke:#c9177e;stroke-width:27px;fill-rule:evenodd"/><path d="M1533.925,433.4445a106.515,106.515,0,1,1-106.52,106.51A106.5683,106.5683,0,0,1,1533.925,433.4445Zm0,39.57a66.9351,66.9351,0,1,1-.01,0h.01Zm-283.8,65.31c0,47.18-8.94,60.93-26.81,80.58s-41.57,27.57-71.1,27.57c-27,0-48.75-9.58-67.61-26.23-20.88-18.45-36.08-47.04-36.08-78.95,0-31.37,11.72-58.48,32.49-78.67,18.22-17.67,45.34-29.18,73.3-29.18a109.8239,109.8239,0,0,1,90.44,47.53l-31.73,26.82c-13.45-25.03-32.94-33.46-60.82-34.26-30.83-.88-64.77,28.53-62.25,67.75,1.4,21.94,11.65,59.65,60.96,66.57,25.9,3.63,55.36-24.02,55.36-39.04h-48.67v-37.5h92.5v6.98l.02.03Zm-562.6-94.65h42.29v112.17q0,26.7,1.47,34.61c1.69,8.48,4.81,14.37,11.17,19.5,6.37,5.13,13.8,6.59,24.84,6.59,11.2,0,14.96-1.74,20.66-6.6,5.69-4.85,9.12-9.46,10.28-16.53a204.9476,204.9476,0,0,0,3.07-35.18v-114.56h42.28v108.78q0,37.29-3.21,52.69-3.21,15.405-11.82,26-8.61,10.59-23.03,16.88-14.43,6.285-37.65,6.28-28.05,0-42.52-6.85-14.49-6.855-22.9-17.8a58.3028,58.3028,0,0,1-11.08-22.96q-3.87-17.79-3.88-52.55v-110.47h.03Zm-380.41,200.54v-207.22h43.35v75.48h71.92v-75.48h43.48v207.22h-43.48v-90.61h-71.92v90.61Z" transform="translate(120 67.5)" style="fill:#fff;fill-rule:evenodd"/><rect width="2160" height="1215" style="fill:none"/></svg>